<svg xmlns="http://www.w3.org/2000/svg" width="24" height="20" viewBox="0 0 24 20">
    <path fill="#FFF" fill-rule="nonzero" d="M21.999 4.122L20.559 12H5.502L5 4l17 .122h-.001zm1.754-1.23a1.078 1.078 0 0 0-.821-.385l-18.064-.13-.065-1.043A1.435 1.435 0 0 0 3.364 0H.769A.795.795 0 0 0 0 .789c0 .424.34.772.77.789h2.444l.781 12.648-.524 1.55c-.13.385-.064.808.176 1.138.24.33.625.527 1.037.53l.329.003a1.617 1.617 0 0 0 .267 2.14c.621.546 1.557.551 2.185.013a1.617 1.617 0 0 0 .292-2.137l8.64.053a1.611 1.611 0 0 0-.034 1.65c.294.516.846.834 1.445.833a1.661 1.661 0 0 0 1.436-.827 1.616 1.616 0 0 0-.014-1.64l.521.004c.41 0 .811-.163 1.1-.45l.663-.652a.782.782 0 0 0-.026-1.09.808.808 0 0 0-1.106-.025l-.648.64-14.61-.09.438-1.289a.776.776 0 0 0 .039-.297l-.042-.692h15.504c.637 0 1.176-.413 1.282-.984l1.637-8.849a1.048 1.048 0 0 0-.229-.867z"/>
</svg>
