<?xml version="1.0" encoding="utf-8"?>
<!-- Generator: Adobe Illustrator 16.0.4, SVG Export Plug-In . SVG Version: 6.00 Build 0)  -->
<!DOCTYPE svg PUBLIC "-//W3C//DTD SVG 1.1//EN" "http://www.w3.org/Graphics/SVG/1.1/DTD/svg11.dtd">
<svg version="1.1" id="Layer_1" xmlns="http://www.w3.org/2000/svg" xmlns:xlink="http://www.w3.org/1999/xlink" x="0px" y="0px"
	 width="36px" height="36px" viewBox="0 0 36 36" enable-background="new 0 0 36 36" xml:space="preserve">
<g>
	<polygon fill="none" points="29.193,8.244 6.804,8.244 18,17.328 	"/>
	<path fill="none" d="M18,19.902L4.836,9.221c0,0.008-0.004,0.015-0.004,0.022v17.512c0,0.551,0.449,1,1,1h24.336
		c0.553,0,1-0.449,1-1V9.244c0-0.008-0.004-0.015-0.004-0.023L18,19.902z"/>
	<path fill="#AFB23B" d="M30.168,6.244H5.832c-1.654,0-3,1.346-3,3v17.512c0,1.654,1.346,3,3,3h24.336c1.654,0,3-1.346,3-3V9.244
		C33.168,7.589,31.822,6.244,30.168,6.244z M29.193,8.244L18,17.328L6.804,8.244H29.193z M31.168,26.756c0,0.551-0.447,1-1,1H5.832
		c-0.551,0-1-0.449-1-1V9.244c0-0.008,0.004-0.015,0.004-0.022L18,19.902L31.164,9.22c0,0.008,0.004,0.015,0.004,0.023V26.756z"/>
</g>
</svg>
