<?xml version="1.0" encoding="utf-8"?>
<!-- Generator: Adobe Illustrator 16.0.4, SVG Export Plug-In . SVG Version: 6.00 Build 0)  -->
<!DOCTYPE svg PUBLIC "-//W3C//DTD SVG 1.1//EN" "http://www.w3.org/Graphics/SVG/1.1/DTD/svg11.dtd">
<svg version="1.1" id="Layer_1" xmlns="http://www.w3.org/2000/svg" xmlns:xlink="http://www.w3.org/1999/xlink" x="0px" y="0px"
	 width="36px" height="36px" viewBox="0 0 36 36" enable-background="new 0 0 36 36" xml:space="preserve">
<g>
	<circle fill="#AFB23B" cx="10.353" cy="15.326" r="1.38"/>
	<circle fill="#AFB23B" cx="17.987" cy="15.326" r="1.38"/>
	<circle fill="#AFB23B" cx="25.647" cy="15.326" r="1.38"/>
	<path fill="#AFB23B" d="M5.5,31.484l1.643-2.197c0.014-0.018,1.21-1.635,2.151-4.164c-4.446-2.059-7.168-5.59-7.168-9.386
		C2.125,9.549,9.247,4.515,18,4.515c8.754,0,15.875,5.034,15.875,11.222c0,6.189-7.121,11.224-15.875,11.224
		c-0.461,0-0.936-0.018-1.465-0.055c-2.652,2.596-8.122,3.898-8.364,3.955L5.5,31.484z M18,6.515c-7.65,0-13.874,4.137-13.874,9.222
		c0,3.205,2.601,6.234,6.787,7.908l0.865,0.346l-0.283,0.887c-0.415,1.299-0.911,2.42-1.368,3.312
		c1.779-0.621,4.086-1.631,5.256-2.975l0.334-0.383l0.507,0.043c0.675,0.059,1.239,0.086,1.776,0.086
		c7.651,0,13.875-4.139,13.875-9.224C31.875,10.652,25.65,6.515,18,6.515z"/>
</g>
</svg>
