<?xml version="1.0" encoding="utf-8"?>
<!-- Generator: Adobe Illustrator 16.0.4, SVG Export Plug-In . SVG Version: 6.00 Build 0)  -->
<!DOCTYPE svg PUBLIC "-//W3C//DTD SVG 1.1//EN" "http://www.w3.org/Graphics/SVG/1.1/DTD/svg11.dtd">
<svg version="1.1" id="Layer_1" xmlns="http://www.w3.org/2000/svg" xmlns:xlink="http://www.w3.org/1999/xlink" x="0px" y="0px"
	 width="36px" height="36px" viewBox="0 0 36 36" enable-background="new 0 0 36 36" xml:space="preserve">
<g>
	<path fill="#B0B23B" d="M30.048,32.527c-7.288,0-13.605-2.623-18.777-7.797C6.097,19.559,3.474,13.24,3.474,5.953
		c0-0.687,0.247-1.296,0.716-1.764c0.467-0.468,1.077-0.715,1.764-0.715h5.284c0.687,0,1.297,0.248,1.765,0.717
		c0.467,0.466,0.714,1.076,0.714,1.763c0,1.762,0.268,3.457,0.795,5.038c0.296,0.966,0.097,1.855-0.554,2.532l-1.554,1.916
		c2.01,3.644,4.859,6.515,8.484,8.546l1.549-1.9c0.629-0.631,1.276-0.762,1.709-0.762c0.309,0,0.622,0.064,0.932,0.193
		c1.514,0.502,3.209,0.768,4.971,0.768c0.688,0,1.297,0.248,1.766,0.717c0.465,0.467,0.713,1.076,0.713,1.764v5.283
		c0,0.688-0.248,1.299-0.715,1.766C31.346,32.279,30.735,32.527,30.048,32.527z M5.953,5.473c-0.183,0-0.271,0.052-0.35,0.129
		c-0.078,0.079-0.13,0.167-0.13,0.35c0,6.738,2.426,12.579,7.211,17.364c4.783,4.785,10.625,7.211,17.363,7.211
		c0.193,0,0.281-0.062,0.348-0.129c0.08-0.078,0.131-0.168,0.131-0.352v-5.283c0-0.184-0.051-0.271-0.129-0.35
		c-0.068-0.068-0.156-0.131-0.35-0.131c-1.977,0-3.885-0.301-5.67-0.896c-0.133-0.051-0.189-0.064-0.232-0.064
		c-0.086,0-0.186,0.072-0.264,0.145l-2.475,3.053l-0.723-0.373c-4.536-2.342-8.023-5.828-10.364-10.364l-0.3-0.581l2.482-3.052
		c0.117-0.118,0.199-0.233,0.103-0.55c-0.588-1.762-0.89-3.67-0.89-5.647c0-0.183-0.052-0.271-0.129-0.349
		c-0.079-0.079-0.168-0.13-0.35-0.13H5.953z"/>
</g>
</svg>
